<svg width="176" height="106" viewBox="0 0 176 106" fill="none" xmlns="http://www.w3.org/2000/svg">
<g clip-path="url(#clip0_67_2991)">
<g clip-path="url(#clip1_67_2991)">
<g clip-path="url(#clip2_67_2991)">
<path d="M39.6445 25.5345C47.7571 21.5332 55.8331 18.5048 63.7989 17.8991C63.8539 16.5041 63.9273 15.1276 63.9824 13.751C55.9982 14.5953 47.9407 17.2934 39.8464 21.0193C39.773 22.5244 39.7179 24.0294 39.6445 25.5345Z" fill="#034EA2"/>
<path d="M63.8928 21.0381C56.4409 21.4602 48.8789 24.195 41.2986 27.8843C41.2251 29.371 41.1701 30.876 41.0967 32.3811C48.6954 28.5083 56.2574 25.5533 63.7092 25.2963C63.7643 23.8647 63.8377 22.4514 63.8928 21.0381Z" fill="#F6B419"/>
<path d="M37.3501 41.9984C46.8025 36.7491 56.2 32.2156 65.3955 32.8396L65.5974 28.4529C56.4019 28.0491 47.0044 32.289 37.5703 37.4099C37.4969 38.9333 37.4418 40.475 37.3684 41.9984H37.3501Z" fill="#F6B419"/>
<path d="M66.2208 43.9079C66.1474 45.413 66.0924 46.9364 66.0189 48.4598C45.9393 45.5231 24.5748 71.6413 4.49512 68.7046L5.35778 64.2996C25.2356 66.6122 46.3614 40.806 66.2208 43.9079Z" fill="#EF4123"/>
<path d="M70.0219 52.7547C69.9485 54.2965 69.8934 55.8199 69.82 57.3616C58.4954 52.9933 46.6384 60.2249 34.8182 66.5388C23.0531 73.0179 11.343 78.5976 0 75.7711L0.862657 71.3844C23.3284 78.1204 47.5929 44.844 70.0219 52.7547Z" fill="#EF4123"/>
<path d="M67.8563 60.2618C67.7829 61.8036 67.7095 63.3637 67.6544 64.9055C56.7703 62.1523 45.464 69.0719 34.2128 74.6883C22.9799 80.5617 11.8205 85.1503 0.917969 83.8655L1.78063 79.4605C12.4445 81.0756 23.4204 76.0649 34.4147 70.0814C45.6843 64.1713 56.9905 57.2517 67.8563 60.2434V60.2618Z" fill="#EF4123"/>
<path d="M27.5109 96.0154L27.3274 100.31C20.8666 102.311 14.4426 103.614 8.01855 104.991L8.80779 100.989C15.0299 99.8331 21.2521 98.273 27.5293 96.0154H27.5109Z" fill="#007932"/>
<path d="M64.9573 72.4124C54.5503 71.4947 43.8131 77.9738 33.1492 82.801C22.2283 88.0687 11.3993 91.5743 0.735352 91.5193L1.59801 87.0775C12.0233 87.7199 22.6505 83.682 33.3511 78.2124C44.0333 73.0181 54.7706 66.4105 65.1775 67.6586L64.9573 72.4124Z" fill="#007932"/>
<path d="M50.4572 83.3512C43.7579 85.7372 37.0218 89.1144 30.3042 91.7207C21.8061 95.1714 13.3631 97.3922 4.9751 98.5853L5.80106 94.4005C13.9688 93.5378 22.2099 90.9682 30.5061 87.2606C37.2237 84.3607 43.9781 80.7265 50.6775 78.3037L50.4572 83.3695V83.3512Z" fill="#007932"/>
<path d="M61.0459 7.0896L60.8624 11.0541C54.7871 12.0636 48.6751 14.0092 42.5264 16.5421L42.7283 12.1738C48.8586 9.89782 54.9706 8.19086 61.0459 7.0896Z" fill="#034EA2"/>
<path d="M50.916 2.64746C53.8159 1.89493 56.7343 1.21582 59.6343 0.5C59.6343 1.76645 59.6159 3.06961 59.5976 4.37277C56.6425 5.01517 53.6875 5.73099 50.7324 6.57529L50.916 2.64746Z" fill="#034EA2"/>
<path d="M64.0189 40.3278C52.2537 39.7404 40.0664 48.4037 27.9893 54.7359L28.1912 50.0923C40.2683 43.76 52.4373 35.3721 64.2208 35.8677C64.1474 37.336 64.0923 38.8227 64.0189 40.3278Z" fill="#F6B419"/>
<path d="M83.0708 72.7611H79.9139L79.2531 74.2478H78.3721L81.0518 68.3193H81.8961L84.5942 74.2478H83.7132L83.0524 72.7611H83.0708ZM82.7771 72.082L81.4923 69.182L80.2075 72.082H82.7588H82.7771Z" fill="#231F20"/>
<path d="M91.3148 74.7802C91.1312 75.0005 90.8926 75.184 90.654 75.2941C90.3971 75.4043 90.1217 75.4777 89.8281 75.4777C89.461 75.4777 89.1122 75.3859 88.7819 75.2024C88.4515 75.0188 88.0844 74.7251 87.6623 74.2846C87.1116 74.2479 86.5977 74.1011 86.1572 73.8441C85.7167 73.5688 85.3496 73.2201 85.111 72.7612C84.854 72.3207 84.7256 71.8068 84.7256 71.2745C84.7256 70.7422 84.854 70.1916 85.1294 69.7328C85.4047 69.2739 85.7718 68.9068 86.2673 68.6499C86.7629 68.3929 87.2952 68.2644 87.8825 68.2644C88.4699 68.2644 89.0205 68.3929 89.4977 68.6499C89.9749 68.9068 90.3603 69.2739 90.6173 69.7328C90.8926 70.1916 91.0211 70.7055 91.0211 71.2929C91.0211 71.7701 90.9293 72.2289 90.7274 72.6327C90.5255 73.0365 90.2502 73.3853 89.9015 73.6606C89.5527 73.9359 89.149 74.1378 88.6901 74.2296C88.892 74.4315 89.0755 74.5967 89.2591 74.6884C89.4426 74.7802 89.6262 74.8353 89.8281 74.8353C90.2502 74.8353 90.5989 74.6701 90.911 74.3213L91.3148 74.7986V74.7802ZM85.8819 72.4308C86.0838 72.7796 86.3591 73.0549 86.7078 73.2568C87.0566 73.4587 87.4604 73.5505 87.8825 73.5505C88.3047 73.5505 88.7085 73.4587 89.0572 73.2568C89.4059 73.0549 89.6812 72.7796 89.8831 72.4308C90.085 72.0821 90.1768 71.6967 90.1768 71.2745C90.1768 70.8524 90.085 70.4486 89.8831 70.1182C89.6812 69.7695 89.4059 69.4941 89.0572 69.2923C88.7085 69.0904 88.323 68.9986 87.8825 68.9986C87.442 68.9986 87.0566 69.0904 86.7078 69.2923C86.3591 69.4941 86.0838 69.7695 85.8819 70.1182C85.68 70.4669 85.5882 70.8524 85.5882 71.2745C85.5882 71.6967 85.68 72.1005 85.8819 72.4308Z" fill="#231F20"/>
<path d="M92.7813 73.6228C92.3408 73.164 92.1206 72.5216 92.1206 71.6773V68.3H92.9649V71.6405C92.9649 72.907 93.5155 73.5494 94.6351 73.5494C95.1857 73.5494 95.5895 73.3842 95.8832 73.0722C96.1769 72.7602 96.3237 72.2829 96.3237 71.6405V68.3H97.1497V71.6773C97.1497 72.5216 96.9294 73.1823 96.4889 73.6228C96.0484 74.0633 95.4427 74.3019 94.6351 74.3019C93.8275 74.3019 93.2218 74.0817 92.7813 73.6228Z" fill="#231F20"/>
<path d="M98.7256 68.3H99.5699V74.2285H98.7256V68.3Z" fill="#231F20"/>
<path d="M104.823 69.0342H102.785V68.3H107.686V69.0342H105.649V74.2285H104.804V69.0342H104.823Z" fill="#231F20"/>
<path d="M112.823 73.4943V74.2285H108.528V68.3H112.713V69.0342H109.373V70.8513H112.346V71.5671H109.373V73.476H112.823V73.4943Z" fill="#231F20"/>
<path d="M119.467 74.2285V69.9152L117.32 73.5127H116.934L114.787 69.9336V74.2285H113.979V68.3H114.677L117.155 72.4665L119.596 68.3H120.293V74.2285H119.486H119.467Z" fill="#231F20"/>
<path d="M125.377 69.4197H123.486V68.3H128.644V69.4197H126.753V74.2285H125.377V69.4197Z" fill="#231F20"/>
<path d="M133.105 74.2285L131.967 72.5766H130.701V74.2285H129.324V68.3H131.894C132.426 68.3 132.866 68.3918 133.27 68.557C133.674 68.7222 133.949 68.9792 134.17 69.3095C134.371 69.6399 134.482 70.007 134.482 70.4475C134.482 70.888 134.371 71.2735 134.17 71.5855C133.949 71.8975 133.656 72.1545 133.27 72.3197L134.592 74.2285H133.123H133.105ZM132.756 69.6766C132.536 69.4931 132.224 69.4013 131.82 69.4013H130.701V71.4754H131.82C132.224 71.4754 132.554 71.3836 132.756 71.2C132.976 71.0165 133.087 70.7595 133.087 70.4292C133.087 70.0988 132.976 69.8418 132.756 69.6583V69.6766Z" fill="#231F20"/>
<path d="M139.675 72.9621H136.922L136.39 74.2285H134.976L137.619 68.3H138.978L141.621 74.2285H140.189L139.657 72.9621H139.675ZM139.235 71.9159L138.299 69.6399L137.362 71.9159H139.235Z" fill="#231F20"/>
<path d="M147.404 71.6965C147.588 71.9535 147.698 72.2655 147.698 72.6326C147.698 73.1465 147.496 73.5503 147.092 73.8256C146.688 74.101 146.101 74.2478 145.33 74.2478H142.265V68.3193H145.165C145.881 68.3193 146.45 68.4662 146.835 68.7415C147.221 69.0168 147.422 69.4022 147.422 69.8611C147.422 70.1548 147.349 70.4117 147.221 70.632C147.074 70.8522 146.89 71.0358 146.633 71.1643C146.964 71.2744 147.239 71.4579 147.422 71.6965H147.404ZM143.623 69.3472V70.7421H144.981C145.312 70.7421 145.569 70.687 145.752 70.5586C145.936 70.4484 146.009 70.2649 146.009 70.0263C146.009 69.7877 145.917 69.6225 145.752 69.5124C145.569 69.4022 145.312 69.3472 144.981 69.3472H143.623ZM146.046 73.0364C146.229 72.9263 146.321 72.7427 146.321 72.4858C146.321 71.9902 145.954 71.7516 145.22 71.7516H143.623V73.2199H145.22C145.587 73.2199 145.862 73.1649 146.046 73.0364Z" fill="#231F20"/>
<path d="M152.577 72.9621H149.824L149.292 74.2285H147.879L150.522 68.3H151.88L154.523 74.2285H153.091L152.559 72.9621H152.577ZM152.137 71.9159L151.201 69.6399L150.265 71.9159H152.137Z" fill="#231F20"/>
<path d="M155.165 68.3H156.542V73.1089H159.515V74.2285H155.165V68.3Z" fill="#231F20"/>
<path d="M165.647 68.3V74.2285H164.27V71.8057H161.572V74.2285H160.195V68.3H161.572V70.6311H164.27V68.3H165.647Z" fill="#231F20"/>
<path d="M168.253 73.9351C167.758 73.6782 167.372 73.3111 167.097 72.8339C166.822 72.3567 166.675 71.8427 166.675 71.2554C166.675 70.6681 166.822 70.1541 167.097 69.6769C167.372 69.1997 167.758 68.851 168.253 68.5757C168.749 68.3187 169.299 68.1719 169.924 68.1719C170.548 68.1719 171.098 68.3004 171.575 68.5757C172.071 68.8326 172.456 69.1997 172.732 69.6769C173.007 70.1358 173.154 70.6681 173.154 71.2554C173.154 71.8427 173.007 72.3567 172.732 72.8339C172.456 73.2927 172.071 73.6598 171.575 73.9351C171.08 74.1921 170.529 74.3389 169.924 74.3389C169.318 74.3389 168.749 74.2105 168.253 73.9351ZM170.86 72.9257C171.135 72.7605 171.355 72.5402 171.52 72.2465C171.686 71.9529 171.759 71.6225 171.759 71.2554C171.759 70.8883 171.686 70.5579 171.52 70.2643C171.355 69.9706 171.135 69.7504 170.86 69.5852C170.584 69.42 170.254 69.3466 169.905 69.3466C169.556 69.3466 169.244 69.42 168.951 69.5852C168.675 69.7504 168.455 69.9706 168.29 70.2643C168.125 70.5579 168.051 70.8883 168.051 71.2554C168.051 71.6225 168.125 71.9529 168.29 72.2465C168.455 72.5402 168.675 72.7605 168.951 72.9257C169.226 73.0908 169.556 73.1643 169.905 73.1643C170.254 73.1643 170.566 73.0908 170.86 72.9257Z" fill="#231F20"/>
<path d="M173.796 74.1196C173.686 74.0094 173.631 73.8626 173.631 73.6974C173.631 73.5322 173.686 73.4037 173.796 73.2936C173.906 73.1835 174.053 73.1284 174.2 73.1284C174.347 73.1284 174.494 73.1835 174.604 73.2936C174.714 73.4037 174.769 73.5322 174.769 73.7158C174.769 73.8993 174.714 74.0278 174.604 74.1379C174.494 74.248 174.365 74.3031 174.218 74.3031C174.071 74.3031 173.925 74.248 173.814 74.1379L173.796 74.1196Z" fill="#231F20"/>
<path d="M83.0708 82.5616H79.9139L79.2531 84.0483H78.3721L81.0518 78.1199H81.8961L84.5942 84.0483H83.7132L83.0524 82.5616H83.0708ZM82.7771 81.8825L81.4923 78.9825L80.2075 81.8825H82.7588H82.7771Z" fill="#231F20"/>
<path d="M91.3148 84.5805C91.1312 84.8008 90.8926 84.9843 90.654 85.0944C90.3971 85.2045 90.1217 85.278 89.8281 85.278C89.461 85.278 89.1122 85.1862 88.7819 85.0026C88.4515 84.8191 88.0844 84.5254 87.6623 84.0849C87.1116 84.0482 86.5977 83.9014 86.1572 83.6444C85.7167 83.3691 85.3496 83.0204 85.111 82.5615C84.854 82.121 84.7256 81.6071 84.7256 81.0748C84.7256 80.5425 84.854 79.9919 85.1294 79.5331C85.4047 79.0742 85.7718 78.7071 86.2673 78.4501C86.7629 78.1932 87.2952 78.0647 87.8825 78.0647C88.4699 78.0647 89.0205 78.1932 89.4977 78.4501C89.9749 78.7071 90.3603 79.0742 90.6173 79.5331C90.8926 79.9919 91.0211 80.5058 91.0211 81.0932C91.0211 81.5704 90.9293 82.0292 90.7274 82.433C90.5255 82.8368 90.2502 83.1856 89.9015 83.4609C89.5527 83.7362 89.149 83.9381 88.6901 84.0299C88.892 84.2318 89.0755 84.397 89.2591 84.4887C89.4426 84.5805 89.6262 84.6356 89.8281 84.6356C90.2502 84.6356 90.5989 84.4704 90.911 84.1216L91.3148 84.5989V84.5805ZM85.8819 82.2311C86.0838 82.5799 86.3591 82.8552 86.7078 83.0571C87.0566 83.259 87.4604 83.3508 87.8825 83.3508C88.3047 83.3508 88.7085 83.259 89.0572 83.0571C89.4059 82.8552 89.6812 82.5799 89.8831 82.2311C90.085 81.8824 90.1768 81.497 90.1768 81.0748C90.1768 80.6527 90.085 80.2489 89.8831 79.9185C89.6812 79.5698 89.4059 79.2944 89.0572 79.0925C88.7085 78.8906 88.323 78.7989 87.8825 78.7989C87.442 78.7989 87.0566 78.8906 86.7078 79.0925C86.3591 79.2944 86.0838 79.5698 85.8819 79.9185C85.68 80.2672 85.5882 80.6527 85.5882 81.0748C85.5882 81.497 85.68 81.9008 85.8819 82.2311Z" fill="#231F20"/>
<path d="M92.7813 83.4251C92.3408 82.9662 92.1206 82.3238 92.1206 81.4795V78.1023H92.9649V81.4428C92.9649 82.7092 93.5155 83.3516 94.6351 83.3516C95.1857 83.3516 95.5895 83.1865 95.8832 82.8744C96.1769 82.5624 96.3237 82.0852 96.3237 81.4428V78.1023H97.1497V81.4795C97.1497 82.3238 96.9294 82.9846 96.4889 83.4251C96.0484 83.8656 95.4427 84.1042 94.6351 84.1042C93.8275 84.1042 93.2218 83.8839 92.7813 83.4251Z" fill="#231F20"/>
<path d="M98.7256 78.1025H99.5699V84.031H98.7256V78.1025Z" fill="#231F20"/>
<path d="M104.823 78.8365H102.785V78.1023H107.686V78.8365H105.649V84.0308H104.804V78.8365H104.823Z" fill="#231F20"/>
<path d="M112.823 83.2966V84.0308H108.528V78.1023H112.713V78.8365H109.373V80.6535H112.346V81.3694H109.373V83.2782H112.823V83.2966Z" fill="#231F20"/>
<path d="M119.467 84.0308V79.7175L117.32 83.3149H116.934L114.787 79.7358V84.0308H113.979V78.1023H114.677L117.155 82.2687L119.596 78.1023H120.293V84.0308H119.486H119.467Z" fill="#231F20"/>
<path d="M125.523 79.2036V80.7637H128.258V81.8649H125.523V84.0308H124.146V78.1023H128.625V79.2036H125.523Z" fill="#231F20"/>
<path d="M130.187 83.4426C129.709 82.9654 129.471 82.3047 129.471 81.442V78.1199H130.847V81.3869C130.847 82.4515 131.288 82.9838 132.169 82.9838C132.591 82.9838 132.921 82.8553 133.16 82.5983C133.38 82.3414 133.49 81.9376 133.49 81.3869V78.1199H134.849V81.442C134.849 82.3047 134.61 82.9838 134.133 83.4426C133.655 83.9198 132.995 84.1401 132.15 84.1401C131.306 84.1401 130.645 83.9015 130.168 83.4426H130.187Z" fill="#231F20"/>
<path d="M137.401 79.2222H135.511V78.1025H140.668V79.2222H138.778V84.031H137.401V79.2222Z" fill="#231F20"/>
<path d="M142.045 83.4426C141.568 82.9654 141.329 82.3047 141.329 81.442V78.1199H142.706V81.3869C142.706 82.4515 143.146 82.9838 144.027 82.9838C144.449 82.9838 144.78 82.8553 145.018 82.5983C145.238 82.3414 145.349 81.9376 145.349 81.3869V78.1199H146.707V81.442C146.707 82.3047 146.468 82.9838 145.991 83.4426C145.514 83.9198 144.853 84.1401 144.009 84.1401C143.164 84.1401 142.504 83.9015 142.026 83.4426H142.045Z" fill="#231F20"/>
<path d="M151.829 84.031L150.691 82.3791H149.424V84.031H148.048V78.1025H150.617C151.15 78.1025 151.59 78.1943 151.994 78.3595C152.398 78.5247 152.673 78.7817 152.893 79.112C153.095 79.4424 153.205 79.8095 153.205 80.25C153.205 80.6905 153.095 81.0759 152.893 81.388C152.673 81.7 152.379 81.957 151.994 82.1221L153.316 84.031H151.847H151.829ZM151.48 79.4791C151.26 79.2956 150.948 79.2038 150.544 79.2038H149.424V81.2778H150.544C150.948 81.2778 151.278 81.1861 151.48 81.0025C151.7 80.819 151.811 80.562 151.811 80.2316C151.811 79.9013 151.7 79.6443 151.48 79.4608V79.4791Z" fill="#231F20"/>
<path d="M155.444 83.7369C154.948 83.4799 154.563 83.1129 154.287 82.6356C154.012 82.1584 153.865 81.6445 153.865 81.0572C153.865 80.4698 154.012 79.9559 154.287 79.4787C154.563 79.0015 154.948 78.6527 155.444 78.3774C155.939 78.1205 156.49 77.9736 157.114 77.9736C157.738 77.9736 158.289 78.1021 158.766 78.3774C159.261 78.6344 159.647 79.0015 159.922 79.4787C160.197 79.9375 160.344 80.4698 160.344 81.0572C160.344 81.6445 160.197 82.1584 159.922 82.6356C159.647 83.0945 159.261 83.4616 158.766 83.7369C158.27 83.9939 157.72 84.1407 157.114 84.1407C156.508 84.1407 155.939 84.0122 155.444 83.7369ZM158.05 82.7274C158.325 82.5622 158.545 82.342 158.711 82.0483C158.876 81.7546 158.949 81.4243 158.949 81.0572C158.949 80.6901 158.876 80.3597 158.711 80.066C158.545 79.7724 158.325 79.5521 158.05 79.3869C157.775 79.2217 157.444 79.1483 157.095 79.1483C156.747 79.1483 156.435 79.2217 156.141 79.3869C155.866 79.5521 155.645 79.7724 155.48 80.066C155.315 80.3597 155.242 80.6901 155.242 81.0572C155.242 81.4243 155.315 81.7546 155.48 82.0483C155.645 82.342 155.866 82.5622 156.141 82.7274C156.416 82.8926 156.747 82.966 157.095 82.966C157.444 82.966 157.756 82.8926 158.05 82.7274Z" fill="#231F20"/>
<path d="M160.984 83.9211C160.874 83.8109 160.819 83.6641 160.819 83.4989C160.819 83.3337 160.874 83.2052 160.984 83.0951C161.094 82.985 161.241 82.9299 161.388 82.9299C161.535 82.9299 161.682 82.985 161.792 83.0951C161.902 83.2052 161.957 83.3337 161.957 83.5173C161.957 83.7008 161.902 83.8293 161.792 83.9394C161.682 84.0495 161.553 84.1046 161.406 84.1046C161.26 84.1046 161.113 84.0495 161.003 83.9394L160.984 83.9211Z" fill="#231F20"/>
<path d="M81.6735 26.472C82.1691 26.1967 82.738 26.0682 83.3621 26.0682C84.3349 26.0682 85.1608 26.4169 85.8583 27.096L86.9228 26.0682C86.5007 25.591 85.9868 25.2239 85.3627 24.9669C84.7387 24.71 84.0596 24.5999 83.307 24.5999C82.371 24.5999 81.545 24.8018 80.7925 25.2055C80.0583 25.6093 79.471 26.16 79.0488 26.8574C78.6267 27.5549 78.4248 28.3625 78.4248 29.2435C78.4248 30.1245 78.6267 30.9321 79.0488 31.6296C79.471 32.327 80.0583 32.8777 80.7925 33.2815C81.5267 33.6853 82.3526 33.8872 83.2703 33.8872C83.9311 33.8872 84.5551 33.7954 85.1792 33.5935C85.8032 33.3916 86.3355 33.1163 86.7944 32.7492V29.1517H85.2159V31.96C84.6836 32.272 84.0596 32.4188 83.3621 32.4188C82.738 32.4188 82.1691 32.2903 81.6735 32.015C81.1779 31.7397 80.7925 31.3543 80.5172 30.877C80.2418 30.3998 80.095 29.8492 80.095 29.2619C80.095 28.6745 80.2418 28.0872 80.5172 27.61C80.7925 27.1328 81.1779 26.7473 81.6735 26.4904V26.472Z" fill="#231F20"/>
<path d="M96.2129 25.2055C95.4787 24.8018 94.6527 24.5999 93.7167 24.5999C92.7806 24.5999 91.973 24.8018 91.2388 25.2055C90.5047 25.6093 89.9173 26.16 89.4952 26.8758C89.073 27.5916 88.8711 28.3809 88.8711 29.2619C88.8711 30.1429 89.073 30.9321 89.4952 31.6479C89.9173 32.3637 90.5047 32.9144 91.2388 33.3182C91.973 33.722 92.7989 33.9239 93.7167 33.9239C94.6344 33.9239 95.4603 33.722 96.2129 33.3182C96.947 32.9144 97.5344 32.3637 97.9565 31.6663C98.3787 30.9688 98.5806 30.1612 98.5806 29.2802C98.5806 28.3992 98.3787 27.5916 97.9565 26.8941C97.5344 26.1967 96.947 25.6461 96.2129 25.2423V25.2055ZM96.4882 30.877C96.2129 31.3543 95.8274 31.7397 95.3502 32.015C94.873 32.2903 94.3224 32.4188 93.735 32.4188C93.1477 32.4188 92.5971 32.2903 92.1198 32.015C91.6426 31.7397 91.2572 31.3726 90.9819 30.877C90.7066 30.3998 90.5781 29.8492 90.5781 29.2435C90.5781 28.6378 90.7066 28.1055 90.9819 27.61C91.2572 27.1328 91.6426 26.7473 92.1198 26.472C92.5971 26.1967 93.1477 26.0682 93.735 26.0682C94.3224 26.0682 94.873 26.1967 95.3502 26.472C95.8274 26.7473 96.2129 27.1144 96.4882 27.61C96.7635 28.0872 96.892 28.6378 96.892 29.2435C96.892 29.8492 96.7635 30.3815 96.4882 30.877Z" fill="#231F20"/>
<path d="M104.142 31.6843L101.132 24.728H99.3145L103.261 33.7584H104.913L108.84 24.728H107.17L104.142 31.6843Z" fill="#231F20"/>
<path d="M111.978 29.8672H116.346V28.4907H111.978V26.1413H116.897V24.728H110.308V33.7584H117.08V32.3451H111.978V29.8672Z" fill="#231F20"/>
<path d="M126.517 29.7015C126.847 29.2059 127.012 28.6186 127.012 27.9578C127.012 27.2971 126.866 26.7281 126.554 26.2509C126.242 25.7736 125.801 25.4066 125.214 25.1496C124.626 24.8926 123.947 24.7642 123.176 24.7642H119.469V33.7761H121.139V31.1515H123.176C123.323 31.1515 123.452 31.1515 123.525 31.1515L125.361 33.7945H127.159L125.085 30.8395C125.709 30.6008 126.186 30.2338 126.517 29.7382V29.7015ZM123.103 29.7565H121.139V26.1591H123.103C123.837 26.1591 124.388 26.3059 124.773 26.6179C125.159 26.93 125.342 27.3705 125.342 27.9395C125.342 28.5084 125.159 28.9673 124.773 29.2793C124.388 29.5914 123.837 29.7565 123.103 29.7565Z" fill="#231F20"/>
<path d="M135.748 30.84L130.774 24.728H129.397V33.7584H131.049V27.6464L136.023 33.7584H137.4V24.728H135.748V30.84Z" fill="#231F20"/>
<path d="M147.054 25.2055C146.319 24.8018 145.493 24.5999 144.557 24.5999C143.621 24.5999 142.814 24.8018 142.08 25.2055C141.345 25.6093 140.758 26.16 140.336 26.8758C139.914 27.5916 139.712 28.3809 139.712 29.2619C139.712 30.1429 139.914 30.9321 140.336 31.6479C140.758 32.3637 141.345 32.9144 142.08 33.3182C142.814 33.722 143.64 33.9239 144.557 33.9239C145.475 33.9239 146.301 33.722 147.054 33.3182C147.788 32.9144 148.375 32.3637 148.797 31.6663C149.219 30.9688 149.421 30.1612 149.421 29.2802C149.421 28.3992 149.219 27.5916 148.797 26.8941C148.375 26.1967 147.788 25.6461 147.054 25.2423V25.2055ZM147.329 30.877C147.054 31.3543 146.668 31.7397 146.191 32.015C145.714 32.2903 145.163 32.4188 144.576 32.4188C143.988 32.4188 143.438 32.2903 142.961 32.015C142.483 31.7397 142.098 31.3726 141.823 30.877C141.547 30.3998 141.419 29.8492 141.419 29.2435C141.419 28.6378 141.547 28.1055 141.823 27.61C142.098 27.1328 142.483 26.7473 142.961 26.472C143.438 26.1967 143.988 26.0682 144.576 26.0682C145.163 26.0682 145.714 26.1967 146.191 26.472C146.668 26.7473 147.054 27.1144 147.329 27.61C147.604 28.0872 147.733 28.6378 147.733 29.2435C147.733 29.8492 147.604 30.3815 147.329 30.877Z" fill="#231F20"/>
<path d="M162.287 25.297C161.535 24.9299 160.69 24.728 159.718 24.728H155.771V33.74H159.718C160.672 33.74 161.535 33.5565 162.287 33.171C163.04 32.8039 163.609 32.2717 164.031 31.5926C164.435 30.9134 164.655 30.1242 164.655 29.2248C164.655 28.3255 164.453 27.5362 164.031 26.8571C163.627 26.178 163.04 25.6457 162.287 25.2787V25.297ZM162.544 30.8767C162.269 31.354 161.884 31.7027 161.388 31.9596C160.892 32.2166 160.305 32.3451 159.644 32.3451H157.46V26.1597H159.644C160.305 26.1597 160.892 26.2881 161.388 26.5451C161.884 26.8021 162.269 27.1508 162.544 27.628C162.82 28.1052 162.948 28.6375 162.948 29.2616C162.948 29.8856 162.82 30.4179 162.544 30.8951V30.8767Z" fill="#231F20"/>
<path d="M175.376 26.8574C174.953 26.16 174.366 25.6093 173.632 25.2055C172.898 24.8018 172.072 24.5999 171.136 24.5999C170.2 24.5999 169.392 24.8018 168.658 25.2055C167.924 25.6093 167.336 26.16 166.914 26.8758C166.492 27.5916 166.29 28.3809 166.29 29.2619C166.29 30.1429 166.492 30.9321 166.914 31.6479C167.336 32.3637 167.924 32.9144 168.658 33.3182C169.392 33.722 170.218 33.9239 171.136 33.9239C172.053 33.9239 172.879 33.722 173.632 33.3182C174.366 32.9144 174.953 32.3637 175.376 31.6663C175.798 30.9688 176 30.1612 176 29.2802C176 28.3992 175.798 27.5916 175.376 26.8941V26.8574ZM173.907 30.877C173.632 31.3543 173.246 31.7397 172.769 32.015C172.292 32.2903 171.741 32.4188 171.154 32.4188C170.567 32.4188 170.016 32.2903 169.539 32.015C169.062 31.7397 168.676 31.3726 168.401 30.877C168.126 30.3998 167.997 29.8492 167.997 29.2435C167.997 28.6378 168.126 28.1055 168.401 27.61C168.676 27.1328 169.062 26.7473 169.539 26.472C170.016 26.1967 170.567 26.0682 171.154 26.0682C171.741 26.0682 172.292 26.1967 172.769 26.472C173.246 26.7473 173.632 27.1144 173.907 27.61C174.183 28.0872 174.311 28.6378 174.311 29.2435C174.311 29.8492 174.183 30.3815 173.907 30.877Z" fill="#231F20"/>
<path d="M96.5425 38.5124C98.2862 39.3016 99.6261 40.4212 100.58 41.8712C101.535 43.3212 101.994 45.0465 101.994 47.0104C101.994 48.9744 101.517 50.6813 100.58 52.1313C99.6261 53.5813 98.2862 54.7009 96.5425 55.4718C94.7989 56.261 92.7432 56.6465 90.3755 56.6465H85.8236V63.4927H78.4268V37.3193H90.3938C92.7615 37.3193 94.8172 37.7048 96.5609 38.494L96.5425 38.5124ZM93.3672 49.837C94.1381 49.1763 94.5235 48.2402 94.5235 47.0104C94.5235 45.7807 94.1381 44.8446 93.3672 44.1655C92.5963 43.4864 91.44 43.156 89.9349 43.156H85.8236V50.8281H89.9349C91.4584 50.8281 92.5963 50.4978 93.3672 49.837Z" fill="#007236"/>
<path d="M103.334 37.3372H110.731V63.5105H103.334V37.3372Z" fill="#007236"/>
<path d="M132.81 58.4263H121.742L119.686 63.5105H112.143L123.688 37.3372H130.974L142.556 63.5105H134.847L132.791 58.4263H132.81ZM130.644 52.9751L127.285 44.6055L123.926 52.9751H130.662H130.644Z" fill="#007236"/>
<path d="M144.116 60.8491C141.969 58.7383 140.886 55.7282 140.886 51.8371V37.3372H148.283V51.6169C148.283 55.8016 149.934 57.894 153.257 57.894C156.579 57.894 158.194 55.8016 158.194 51.6169V37.3372H165.481V51.8371C165.481 55.7282 164.398 58.72 162.25 60.8491C160.103 62.9598 157.074 64.0244 153.183 64.0244C149.292 64.0244 146.264 62.9598 144.116 60.8491Z" fill="#007236"/>
<path d="M174.896 37.3372H167.499V42.0909L174.896 37.3372Z" fill="#007236"/>
<path d="M167.499 44.2384V63.5105H174.896V39.4846L167.499 44.2384Z" fill="#007236"/>
<path d="M86.7781 29.1333H83.8047V30.4548H86.7781V29.1333Z" fill="#231F20"/>
</g>
</g>
</g>
<defs>
<clipPath id="clip0_67_2991">
<rect width="176" height="105" fill="white" transform="translate(0 0.5)"/>
</clipPath>
<clipPath id="clip1_67_2991">
<rect width="176" height="105" fill="white" transform="translate(0 0.5)"/>
</clipPath>
<clipPath id="clip2_67_2991">
<rect width="176" height="105" fill="white" transform="translate(0 0.5)"/>
</clipPath>
</defs>
</svg>
